#!OML:ASF H:\Terrain\Patient Classification 1\Animal2\Wednesday\Animal2.ASF
:FULLY-SPECIFIED
:DEGREES
1334
root 3.16201 16.5407 -3.40117 6.15259 -25.038 -1.93075
lowerback 8.28178 -1.77309 1.33654
upperback -14.8016 -2.62898 -0.935149
thorax -22.4082 -1.58953 -1.12345
lowerneck -4.23776 8.2123 16.4286
upperneck -30.0496 6.07901 -23.7435
head -6.6197 2.94042 -11.4431
rclavicle 1.15295e-014 -1.98785e-014
rhumerus -22.4636 -22.0209 19.921
rradius 21.9834
rwrist 6.00957
rhand -7.42887 24.0062
rfingers 7.12502
rthumb 18.4583 -5.13804
lclavicle 1.15295e-014 -1.98785e-014
lhumerus -18.5418 10.9432 -28.2445
lradius 30.9867
lwrist 48.7884
lhand -14.5502 28.4755
lfingers 7.12502
lthumb 11.5986 58.1345
rfemur -12.8073 2.74857 4.93148
rtibia 38.265
rfoot -32.8587 -5.29088
rtoes -18.7839
lfemur -13.8463 -8.74542 0.978493
ltibia 36.1228
lfoot -28.7761 -0.527073
ltoes -30.4465
1335
root 3.1666 16.5419 -3.40564 6.32692 -24.9832 -1.9784
lowerback 8.42872 -1.77267 1.33985
upperback -14.8351 -2.61779 -0.879479
thorax -22.5619 -1.57715 -1.05584
lowerneck -4.37409 8.23267 16.4162
upperneck -29.4729 6.15922 -23.8127
head -6.38217 2.98764 -11.3963
rclavicle -5.96354e-015 8.74653e-015
rhumerus -22.1726 -22.5532 20.2573
rradius 21.7604
rwrist 6.43231
rhand -7.584 23.8917
rfingers 7.12502
rthumb 18.3091 -5.26658
lclavicle -5.96354e-015 8.74653e-015
lhumerus -18.3075 11.1614 -28.3167
lradius 30.9177
lwrist 48.7703
lhand -14.8282 28.7041
lfingers 7.12502
lthumb 11.3305 58.378
rfemur -13.0236 2.68839 4.97286
rtibia 38.3589
rfoot -32.7613 -5.41964
rtoes -19.1235
lfemur -14.129 -8.76346 1.07003
ltibia 36.264
lfoot -28.7682 -1.1496
ltoes -28.9126
1336
root 3.17406 16.5405 -3.41629 6.56584 -24.9069 -2.15452
lowerback 8.72804 -1.76787 1.44854
upperback -15.1535 -2.56504 -0.75309
thorax -22.6194 -1.54988 -0.96072
lowerneck -3.8714 8.03019 16.2232
upperneck -29.5424 5.92962 -23.8438
head -6.55165 2.92378 -11.4218
rclavicle 1.98785e-014 2.38542e-014
rhumerus -21.772 -22.5238 20.5121
rradius 21.6818
rwrist 6.19559
rhand -7.73249 23.5309
rfingers 7.12502
rthumb 18.1662 -5.64082
lclavicle 1.98785e-014 2.38542e-014
lhumerus -18.0199 11.4765 -28.2591
lradius 30.7446
lwrist 48.54
lhand -14.9139 28.8224
lfingers 7.12502
lthumb 11.2478 58.5008
rfemur -13.291 2.72748 5.16476
rtibia 38.4983
rfoot -32.5989 -5.72623
rtoes -19.5454
lfemur -14.5366 -8.57013 1.30193
ltibia 36.501
lfoot -28.7743 -0.397728
ltoes -31.4592
1337
root 3.18118 16.5391 -3.42352 6.62356 -24.7977 -2.08378
lowerback 8.8731 -1.76706 1.37441
upperback -15.123 -2.56761 -0.71362
thorax -22.6741 -1.5309 -0.867025
lowerneck -3.40283 7.96525 15.9411
upperneck -29.578 5.91359 -23.7549
head -6.67031 2.96326 -11.3656
rclavicle -8.11041e-014 -5.32743e-014
rhumerus -21.4237 -22.5297 20.7186
rradius 21.688
rwrist 5.56166
rhand -8.3393 22.9318
rfingers 7.12502
rthumb 17.5823 -6.29312
lclavicle -8.11041e-014 -5.32743e-014
lhumerus -17.7472 11.6344 -28.1402
lradius 30.6806
lwrist 48.5336
lhand -14.838 28.9246
lfingers 7.12502
lthumb 11.321 58.5991
rfemur -13.4903 2.75048 5.11403
rtibia 38.71
rfoot -32.4372 -6.32802
rtoes -20.4581
lfemur -14.9003 -8.47854 1.26301
ltibia 36.8087
lfoot -28.8269 -0.00103211
ltoes -32.7175
1338
root 3.18724 16.5285 -3.42922 6.4894 -24.6558 -1.95451
lowerback 9.10157 -1.8694 1.32866
upperback -14.9253 -2.72795 -0.808119
thorax -22.5729 -1.59958 -0.901207
lowerneck -3.26622 8.07065 16.0734
upperneck -29.592 6.11158 -23.6682
head -6.65611 3.04835 -11.3551
rclavicle 1.98785e-014 3.97569e-016
rhumerus -21.1938 -23.5175 20.6608
rradius 21.6177
rwrist 5.82204
rhand -9.08982 22.4507
rfingers 7.12502
rthumb 16.86 -6.83744
lclavicle 1.98785e-014 3.97569e-016
lhumerus -17.584 11.3705 -28.2521
lradius 30.8636
lwrist 49.3473
lhand -15.2221 29.1041
lfingers 7.12502
lthumb 10.9506 58.7985
rfemur -13.5241 2.68006 5.0005
rtibia 39.0156
rfoot -32.4124 -6.79874
rtoes -21.4206
lfemur -15.0832 -8.51479 1.15709
ltibia 37.1261
lfoot -29.0167 0.0912199
ltoes -33.3573
1339
root 3.19193 16.5121 -3.44207 6.45972 -24.5791 -2.1173
lowerback 9.4097 -2.04324 1.54345
upperback -14.6875 -2.93323 -0.900368
thorax -22.4932 -1.73109 -1.0665
lowerneck -3.45699 8.23624 16.7122
upperneck -29.3858 6.37941 -23.6843
head -6.46415 3.11041 -11.4332
rclavicle -8.34896e-015 -2.26615e-014
rhumerus -20.9427 -24.9435 20.2765
rradius 21.5391
rwrist 6.69332
rhand -9.49817 22.2462
rfingers 7.12502
rthumb 16.4669 -7.07499
lclavicle -8.34896e-015 -2.26615e-014
lhumerus -17.3853 11.4961 -28.6235
lradius 30.9542
lwrist 49.8658
lhand -15.6648 29.4312
lfingers 7.12502
lthumb 10.5235 59.1478
rfemur -13.623 2.70327 5.18328
rtibia 39.4021
rfoot -32.5311 -6.55277
rtoes -20.8612
lfemur -15.23 -8.38893 1.38029
ltibia 37.4375
lfoot -29.1494 0.284728
ltoes -34.6323
1340
root 3.19553 16.5034 -3.45913 6.49505 -24.6756 -2.30325
lowerback 9.68802 -2.07369 1.61389
upperback -14.4944 -2.94505 -0.875744
thorax -22.4264 -1.73904 -1.06832
lowerneck -3.32255 8.27643 16.9243
upperneck -29.4489 6.47103 -23.6519
head -6.48134 3.13896 -11.4692
rclavicle -3.95581e-014 -3.29983e-014
rhumerus -20.5787 -25.4531 19.9473
rradius 21.5353
rwrist 6.5588
rhand -10.0863 21.9424
rfingers 7.12502
rthumb 15.9005 -7.42484
lclavicle -3.95581e-014 -3.29983e-014
lhumerus -17.1105 12.2699 -28.6553
lradius 30.886
lwrist 49.3412
lhand -15.7094 29.4652
lfingers 7.12502
lthumb 10.4805 59.184
rfemur -13.9305 2.87371 5.36808
rtibia 39.8525
rfoot -32.5028 -6.26118
rtoes -20.0933
lfemur -15.3746 -8.04821 1.61775
ltibia 37.7653
lfoot -29.1836 0.154748
ltoes -35.0867
1341
root 3.20133 16.4932 -3.47043 6.38147 -24.8117 -2.1961
lowerback 9.97216 -2.0036 1.39336
upperback -14.3294 -2.88363 -0.884149
thorax -22.3819 -1.67053 -0.962032
lowerneck -2.97953 8.21977 16.8314
upperneck -29.7001 6.42962 -23.5677
head -6.64608 3.1372 -11.4685
rclavicle 5.30755e-014 1.98785e-014
rhumerus -20.1978 -24.7698 19.5347
rradius 21.7394
rwrist 4.94811
rhand -11.2207 21.1714
rfingers 7.12502
rthumb 14.8079 -8.27958
lclavicle 5.30755e-014 1.98785e-014
lhumerus -16.7515 12.7431 -28.3702
lradius 30.8747
lwrist 49.0631
lhand -15.6391 29.0339
lfingers 7.12502
lthumb 10.5483 58.7492
rfemur -14.2407 2.89215 5.20007
rtibia 40.3487
rfoot -32.4965 -6.12957
rtoes -20.0562
lfemur -15.4762 -7.74068 1.5042
ltibia 38.1167
lfoot -29.2957 0.0874596
ltoes -35.786
1342
root 3.20846 16.4755 -3.47757 6.14007 -24.7859 -1.95475
lowerback 10.2635 -2.0154 1.22008
upperback -14.1511 -2.95106 -1.013
thorax -22.3431 -1.68142 -0.984831
lowerneck -2.9876 8.19206 17.1019
upperneck -29.4411 6.42873 -23.6527
head -6.54055 3.12239 -11.5254
rclavicle 4.05521e-014 1.07344e-014
rhumerus -19.8747 -24.2975 19.0184
rradius 22.0394
rwrist 3.65194
rhand -12.1961 20.4288
rfingers 7.12502
rthumb 13.868 -9.08888
lclavicle 4.05521e-014 1.07344e-014
lhumerus -16.3565 12.3876 -28.1481
lradius 31.0832
lwrist 49.843
lhand -15.8469 29.1097
lfingers 7.12502
lthumb 10.3478 58.8351
rfemur -14.3787 2.78412 4.90312
rtibia 40.8574
rfoot -32.6788 -6.02709
rtoes -19.9014
lfemur -15.5674 -7.73094 1.26053
ltibia 38.4778
lfoot -29.4526 -0.0526948
ltoes -36.1555
1343
root 3.21449 16.4571 -3.48765 5.90985 -24.7028 -1.73135
lowerback 10.5426 -2.0082 1.02598
upperback -14.0285 -2.97938 -1.0378
thorax -22.361 -1.65942 -0.885565
lowerneck -2.88966 8.1333 16.9617
upperneck -29.0499 6.42075 -23.6177
head -6.44141 3.14271 -11.453
rclavicle -3.45885e-014 -1.63003e-014
rhumerus -19.4138 -24.4428 18.8217
rradius 22.2023
rwrist 3.26711
rhand -12.7068 20.1606
rfingers 7.12502
rthumb 13.3758 -9.39003
lclavicle -3.45885e-014 -1.63003e-014
lhumerus -16.0085 12.2067 -27.6781
lradius 31.3734
lwrist 50.2443
lhand -16.3115 29.3252
lfingers 7.12502
lthumb 9.89963 59.0724
rfemur -14.5036 2.71961 4.65992
rtibia 41.3638
rfoot -32.819 -6.25091
rtoes -20.5048
lfemur -15.7291 -7.89575 1.07809
ltibia 38.8894
lfoot -29.5956 -1.11242
ltoes -32.9192
